PathFileType	4	(X/Y/Z)	./resultDataOpenSim/trcMotMarkerGrf/sub09/qtm-04-07.trc
DataRate	CameraRate	NumFrames	NumMarkers	Units	OrigDataRate	OrigDataStartFrame	OrigNumFrames
250.000000	250.000000	9	24	m	250.000000	367	488
Frame#	Time	L.Toe.Tip			R.Toe.Tip			L.Ankle.Lat			R.Ankle.Lat			L.Ankle.Med			R.Ankle.Med			L.Heel			R.Heel			L.Knee.Lat			R.Knee.Lat			L.Knee.Med			R.Knee.Med			L.Thigh.Upper			R.Thigh.Upper			L.ASIS			R.ASIS			V.Sacral			L.Acromium			R.Acromium			C7			L.Elbow			R.Elbow			L.Wrist.Lat			R.Wrist.Lat
		X1	Y1	Z1	X2	Y2	Z2	X3	Y3	Z3	X4	Y4	Z4	X5	Y5	Z5	X6	Y6	Z6	X7	Y7	Z7	X8	Y8	Z8	X9	Y9	Z9	X10	Y10	Z10	X11	Y11	Z11	X12	Y12	Z12	X13	Y13	Z13	X14	Y14	Z14	X15	Y15	Z15	X16	Y16	Z16	X17	Y17	Z17	X18	Y18	Z18	X19	Y19	Z19	X20	Y20	Z20	X21	Y21	Z21	X22	Y22	Z22	X23	Y23	Z23	X24	Y24	Z24

367	1.464	0.62954929	0.13187508	-0.040161752	1.0297202	0.040023555	0.091908406	0.62331234	0.28426829	-0.10820822	0.88372071	0.054168403	0.12584764	0.63536365	0.28107339	-0.011012643	0.89070599	0.091343269	0.033742418	0.5578283	0.33404587	-0.074861687	0.81230104	0.033101004	0.078863184	0.9778341	0.47762417	-0.11077741	0.97382374	0.50342661	0.1747262	0.97588376	0.46850441	0.017643567	0.95359286	0.48955912	0.049878648	0.84107707	0.86749817	-0.13726437	0.83838081	0.89078501	0.23413584	0.91525773	0.95421172	-0.080767306	0.9234681	0.97189304	0.15630855	0.75650154	1.0233964	0.037732386	0.93367332	1.4157889	-0.13114649	0.90636313	1.4240501	0.19862776	0.85327852	1.4709426	0.030351339	0.79898571	1.0683731	-0.18537867	0.77513988	1.073724	0.2825176	0.94934851	0.84933419	-0.19340862	0.98246153	0.88810741	0.28073955
368	1.468	0.64680657	0.13122122	-0.042119635	1.0297427	0.040009992	0.091928261	0.63579386	0.28362678	-0.10769099	0.88398202	0.054192479	0.12569553	0.64808339	0.27963475	-0.010470797	0.89086116	0.091356083	0.033663984	0.5688621	0.33137852	-0.073420074	0.81237816	0.033186456	0.078677526	0.9880896	0.48100628	-0.11015068	0.97523015	0.50321392	0.17467677	0.98571504	0.47188378	0.018337837	0.95480048	0.48943281	0.050009346	0.84688291	0.86913352	-0.13746981	0.84185755	0.89166871	0.23416712	0.92082302	0.95605154	-0.080563811	0.92832908	0.97304874	0.15649804	0.75947577	1.0246131	0.036032779	0.93819998	1.4169955	-0.13147706	0.91120966	1.4255736	0.19837503	0.85799711	1.4722738	0.030111058	0.80252828	1.070041	-0.18539953	0.78017666	1.074978	0.28271324	0.95137745	0.85012849	-0.19477358	0.98923642	0.89115284	0.27951725
369	1.472	0.66421526	0.13046972	-0.044056828	1.0297635	0.039998155	0.091943431	0.64828674	0.28272586	-0.10712484	0.88421694	0.05419326	0.12554201	0.66096983	0.27793533	-0.0099587432	0.89100422	0.091376505	0.033594789	0.58018532	0.32855749	-0.072056707	0.81247651	0.033273243	0.078437913	0.9982128	0.48439123	-0.10959493	0.97667466	0.50304051	0.17465705	0.99545917	0.47522137	0.018966964	0.9564352	0.48933524	0.050035961	0.85262642	0.87074026	-0.13769525	0.8464559	0.89259642	0.23392266	0.92605332	0.95767966	-0.080415567	0.93318843	0.9741595	0.15667452	0.76356688	1.0257628	0.035256816	0.94271801	1.4181495	-0.13180323	0.91606221	1.4270512	0.19812108	0.86271501	1.4735525	0.029886525	0.80607015	1.0716628	-0.18543455	0.7852446	1.076182	0.28290719	0.95343207	0.85091196	-0.19614579	0.99600578	0.89416372	0.27830286
370	1.476	0.68169744	0.12960744	-0.045935139	1.0297835	0.039985261	0.091952446	0.66081394	0.28154838	-0.1065226	0.88433728	0.054198317	0.12543097	0.67405419	0.27603155	-0.0094628127	0.89114159	0.091402759	0.033522985	0.59170733	0.32558926	-0.070752593	0.81255492	0.033366917	0.078231598	1.0081918	0.48776358	-0.1090898	0.9782042	0.50287817	0.17472082	1.005544	0.47849391	0.01950635	0.9580956	0.48927768	0.049846147	0.85836606	0.87232215	-0.13789998	0.8516753	0.89352076	0.23351501	0.93119873	0.95922995	-0.080295529	0.93805133	0.97522397	0.15683834	0.76843407	1.0268462	0.035118121	0.94723857	1.4192484	-0.13211611	0.92092788	1.4284823	0.19786981	0.86742968	1.4747737	0.029679524	0.80961451	1.073237	-0.18547094	0.79034016	1.0773346	0.28310231	0.9555145	0.85167925	-0.19752935	1.0027685	0.89713778	0.27709785
371	1.48	0.69923647	0.12861645	-0.047753151	1.0297998	0.03996598	0.091956385	0.6733955	0.28009055	-0.10590574	0.88426545	0.054226595	0.12539421	0.68741052	0.27395452	-0.008959452	0.89128045	0.091431207	0.033440461	0.60336025	0.3223748	-0.069407646	0.81258649	0.033470912	0.078115624	1.0180149	0.49110533	-0.10861611	0.97981203	0.50268559	0.17486761	1.0159478	0.48172766	0.019941606	0.95957006	0.48926748	0.049430869	0.86417197	0.87387201	-0.13803134	0.85696187	0.89439049	0.23306204	0.93640293	0.96075256	-0.08020805	0.94291407	0.97623853	0.15698603	0.77355919	1.0278808	0.035182088	0.95176367	1.4202975	-0.13241806	0.92580325	1.4298658	0.19762113	0.87212417	1.475948	0.029450246	0.81316945	1.0747673	-0.18551068	0.79545353	1.0784373	0.2833035	0.95762438	0.85242592	-0.19892732	1.0094739	0.90005524	0.2758901
372	1.484	0.7169566	0.12750972	-0.049563431	1.0298046	0.039932242	0.091959567	0.68604677	0.27835025	-0.10528977	0.8839673	0.054289536	0.125444	0.70102672	0.27166025	-0.0083909016	0.8914223	0.091459291	0.033349258	0.6151426	0.31882394	-0.067998717	0.81256884	0.033589592	0.078079994	1.0276863	0.4944077	-0.10817608	0.98145513	0.50248043	0.17505082	1.0262082	0.48495032	0.020267558	0.96086657	0.4892992	0.048976857	0.8700687	0.87538097	-0.13806465	0.86201198	0.89517886	0.23262449	0.94177064	0.96224916	-0.080190096	0.94777216	0.97719985	0.15711483	0.77866071	1.0288716	0.035221814	0.95628424	1.4213053	-0.13272012	0.930675	1.4312017	0.19736793	0.87676276	1.4770955	0.029126839	0.81674069	1.0762562	-0.18556311	0.80057667	1.0794954	0.28351491	0.95976232	0.85314977	-0.20033287	1.0160662	0.90289314	0.27466405
373	1.488	0.73498664	0.12633115	-0.051414583	1.0297934	0.039880252	0.091965382	0.6987796	0.2763145	-0.10467356	0.8835233	0.05438821	0.12555194	0.71476128	0.26907587	-0.0077290087	0.8915571	0.091485839	0.033262275	0.62707383	0.31490071	-0.066577666	0.81251024	0.033716558	0.078055289	1.037218	0.49767266	-0.10778469	0.9831005	0.50230818	0.17522784	1.0358073	0.4881443	0.020427192	0.96208571	0.4893251	0.048711854	0.87591421	0.87684411	-0.13808154	0.86676331	0.895883	0.23221226	0.94732523	0.96370832	-0.080254418	0.95262844	0.97810502	0.15722662	0.78365041	1.029804	0.035180752	0.96079477	1.4222738	-0.13303368	0.93553336	1.4324893	0.19710291	0.88131468	1.4782222	0.028662024	0.82032601	1.0777011	-0.18563001	0.80571897	1.0805148	0.28374544	0.96193111	0.85385301	-0.20173564	1.0225448	0.90564751	0.27341621
374	1.492	0.75331049	0.12511648	-0.053298449	1.0297766	0.039819418	0.091969178	0.71160425	0.2739693	-0.10405366	0.88312943	0.054500564	0.1256433	0.72855677	0.26617829	-0.0070555331	0.89166704	0.091509863	0.033195948	0.63915095	0.31059051	-0.065192666	0.81240634	0.033828053	0.077973541	1.0466063	0.50090009	-0.10745749	0.98473956	0.50215472	0.17538851	1.0444033	0.49124956	0.020348842	0.96333289	0.48927289	0.048650519	0.88142162	0.87825862	-0.13825552	0.87129302	0.89651764	0.23182244	0.95290516	0.96512056	-0.08034	0.95748715	0.97895129	0.15732485	0.78855118	1.0306727	0.035085159	0.96529873	1.4231983	-0.13336502	0.9403807	1.4337254	0.19682565	0.88580772	1.479302	0.028112291	0.82391571	1.0790965	-0.18570759	0.81090583	1.081496	0.28400797	0.96413621	0.85453614	-0.20313384	1.0289521	0.90832962	0.27215652
375	1.496	0.77174983	0.12385123	-0.05512879	1.0297735	0.039765687	0.091961266	0.72453297	0.27131123	-0.10343665	0.88293969	0.054594623	0.12565141	0.74256598	0.26299817	-0.006508807	0.89175061	0.091528397	0.033148828	0.65134524	0.30587835	-0.063856607	0.81227467	0.033911472	0.077820281	1.0558369	0.50407764	-0.10720329	0.98635405	0.5019513	0.17552572	1.0521669	0.49420348	0.020101413	0.96469615	0.48910791	0.048638709	0.88651777	0.87962491	-0.13862678	0.87570974	0.89710479	0.23149429	0.95827691	0.96648153	-0.080362866	0.96234532	0.97973873	0.15741123	0.79345393	1.0315033	0.034993214	0.96979934	1.424074	-0.13371044	0.94522806	1.4349076	0.19654225	0.89032952	1.4803027	0.027617346	0.82751202	1.0804411	-0.18579718	0.81614957	1.0824366	0.2843039	0.96637662	0.85519063	-0.20453534	1.0353234	0.91094431	0.27089765
